<svg xmlns="http://www.w3.org/2000/svg" width="159" height="38" viewBox="0 0 159 38">
  <g id="Groupe_59" data-name="Groupe 59" transform="translate(-15 -15)">
    <g id="Rectangle_31" data-name="Rectangle 31" transform="translate(15 15)" fill="none" stroke="#fff" stroke-width="2">
      <rect width="159" height="38" rx="8" stroke="none"/>
      <rect x="1" y="1" width="157" height="36" rx="7" fill="none"/>
    </g>
    <path id="Tracé_22" data-name="Tracé 22" d="M-1350.087,1334.752l-7.588,7.587,7.588,7.587" transform="translate(1384.745 -1308.111)" fill="none" stroke="#fff" stroke-linecap="round" stroke-linejoin="round" stroke-width="2"/>
    <text id="Quitter_Mars" data-name="Quitter Mars" transform="translate(74.866 39)" fill="#fff" font-size="14" font-family='Poppins' font-weight="500"><tspan x="0" y="0">Quitter Mars</tspan></text>
    <g id="noun_Rocket_750644" transform="translate(44.118 21.555)">
      <path id="Tracé_23" data-name="Tracé 23" d="M9.255,8.818,8.168,8.763a3.112,3.112,0,0,0-2.353.9L4.187,11.295a.589.589,0,0,0,.191.961l2.437,1.009a14.591,14.591,0,0,0-.488,1.72.421.421,0,0,0,.114.387l3.07,3.07a.421.421,0,0,0,.387.114,14.644,14.644,0,0,0,1.72-.488l1.011,2.439a.589.589,0,0,0,.961.191l1.627-1.627a3.108,3.108,0,0,0,.9-2.353l-.055-1.087c3.566-2.8,5.707-6.97,6.367-12.393a.707.707,0,0,0-.786-.786C16.225,3.111,12.058,5.254,9.255,8.818ZM21.579,3.306C20.912,8.5,18.826,12.468,15.384,15.1a.421.421,0,0,0-.164.355l.067,1.306a2.267,2.267,0,0,1-.66,1.716l-1.36,1.36-1.026-2.462a.421.421,0,0,0-.538-.231,14.065,14.065,0,0,1-1.76.543L7.209,14.951a14.088,14.088,0,0,1,.542-1.76.421.421,0,0,0-.231-.538L5.06,11.631l1.36-1.36a2.269,2.269,0,0,1,1.716-.66l1.306.067A.421.421,0,0,0,9.787,9.5C12.417,6.059,16.385,3.973,21.579,3.306Zm-5.318,7.4a2.086,2.086,0,1,0-1.472-.61A2.086,2.086,0,0,0,16.261,10.71Zm-.877-2.967a1.245,1.245,0,1,1-.366.881A1.245,1.245,0,0,1,15.384,7.743ZM3.018,22.445h0a6.729,6.729,0,0,0,5.555-2.6.524.524,0,0,0-.549-.814,3.663,3.663,0,0,1-1.352.093,1.051,1.051,0,0,1-.917-.917,3.671,3.671,0,0,1,.1-1.346.524.524,0,0,0-.814-.553,6.734,6.734,0,0,0-2.6,5.549.58.58,0,0,0,.578.589ZM4.91,17.54a4.437,4.437,0,0,0,.025.767,1.892,1.892,0,0,0,1.651,1.651,4.456,4.456,0,0,0,.767.025A6.135,6.135,0,0,1,3.3,21.594a6.141,6.141,0,0,1,1.6-4.056Z" transform="translate(0 0)" fill="#fff" stroke="#fff" stroke-width="1"/>
    </g>
  </g>
</svg>
