<svg xmlns="http://www.w3.org/2000/svg" width="40" height="40" viewBox="0 0 40 40">
  <g id="info" transform="translate(-0.132)">
    <g id="Ellipse_4" data-name="Ellipse 4" transform="translate(0.132)" fill="#141414" stroke="#1d1d1d" stroke-width="2">
      <circle cx="20" cy="20" r="20" stroke="none"/>
      <circle cx="20" cy="20" r="19" fill="none"/>
    </g>
    <g id="noun_Information_2119897" transform="translate(14.678 8.194)">
      <g id="Groupe_47" data-name="Groupe 47">
        <path id="Tracé_16" data-name="Tracé 16" d="M135.383,146.408c-.926,3.572-10.318,3.836-9.656-.926.4-3.175,1.058-6.217,1.587-9.392.265-1.984-1.058-1.323-2.117-1.72-.794-.4-.794-1.323.132-1.455a56.277,56.277,0,0,1,6.746-.132c.794,0,1.191.4,1.191,1.058a4.247,4.247,0,0,1-.132,1.852c-.529,3.042-1.323,6.217-1.587,9.127-.132.661,0,1.852.926,1.852a10.02,10.02,0,0,0,2.116-.794C135.118,145.614,135.383,146.011,135.383,146.408Z" transform="translate(-124.618 -125.385)" fill="#fff" fill-rule="evenodd"/>
        <path id="Tracé_17" data-name="Tracé 17" d="M150.175,74a3.134,3.134,0,0,1,3.175,3.175,3.055,3.055,0,0,1-3.175,3.175,3.175,3.175,0,0,1,0-6.349Z" transform="translate(-144.08 -74)" fill="#fff" fill-rule="evenodd"/>
      </g>
    </g>
  </g>
</svg>
