<svg xmlns="http://www.w3.org/2000/svg" width="24.41" height="16.274" viewBox="0 0 24.41 16.274">
  <g id="noun_Planet_1194472" transform="translate(-10.001 -23.333)">
    <path id="Tracé_13" data-name="Tracé 13" d="M34.349,28.216c-.414-1.553-2.861-2.366-6.248-2.34a8.119,8.119,0,0,0-13.8,3.7,0,0,0,0,0,0,0c-2.944,1.67-4.653,3.6-4.237,5.147s2.865,2.369,6.253,2.341a8.115,8.115,0,0,0,13.8-3.7C33.055,31.694,34.765,29.768,34.349,28.216ZM22.883,34c-5.588,1.5-10.421,1.579-10.8.182-.169-.629.6-1.451,2-2.3,0,0,.006-.006.007-.009a8.251,8.251,0,0,0,.267,1.743c.246.021.538.039.9.039a30,30,0,0,0,7.221-1.127,26.126,26.126,0,0,0,7.581-3.117,8.108,8.108,0,0,0-.639-1.653s.008.008.01.012c1.639.034,2.717.361,2.885.99C32.7,30.155,28.471,32.5,22.883,34Z" transform="translate(0)" fill="#ffc400"/>
  </g>
</svg>
