<svg xmlns="http://www.w3.org/2000/svg" width="19.308" height="18.021" viewBox="0 0 19.308 18.021">
  <g id="noun_rover_1598863" transform="translate(-5 -8)">
    <path id="Tracé_11" data-name="Tracé 11" d="M38,16.367V15.08a1.289,1.289,0,0,1,1.287-1.287h.644V11.04a1.283,1.283,0,1,1,1.752-1.752H45.2A1.928,1.928,0,0,1,47.011,8h1.931a.644.644,0,1,1,0,1.287H47.011a.644.644,0,1,0,0,1.287h1.931a.644.644,0,1,1,0,1.287H47.011A1.928,1.928,0,0,1,45.2,10.574H41.683a1.286,1.286,0,0,1-.465.465v2.753h.644a1.289,1.289,0,0,1,1.287,1.287v1.287Z" transform="translate(-25.92)" fill="#3bffca"/>
    <path id="Tracé_12" data-name="Tracé 12" d="M22.378,27.078H8.218V25.086a2.97,2.97,0,0,0,2.3-.484.644.644,0,0,0,.08-.995L9.317,22.384l.644-.644a.644.644,0,0,0-.91-.91l-.664.664L7.011,20.177a.643.643,0,0,0-1.026.188,3.367,3.367,0,0,0,.946,4.128v2.585A1.933,1.933,0,0,0,5,29.009v2.574a1.927,1.927,0,0,0,1.348,1.831,2.567,2.567,0,0,0,5,.1h.826a2.562,2.562,0,0,0,4.966,0h.826a2.567,2.567,0,0,0,5-.1,1.927,1.927,0,0,0,1.348-1.831V29.009A1.933,1.933,0,0,0,22.378,27.078ZM8.862,34.158a1.287,1.287,0,1,1,1.287-1.287A1.289,1.289,0,0,1,8.862,34.158Zm5.793,0a1.287,1.287,0,1,1,1.287-1.287A1.289,1.289,0,0,1,14.654,34.158Zm5.793,0a1.287,1.287,0,1,1,1.287-1.287A1.289,1.289,0,0,1,20.447,34.158Z" transform="translate(0 -9.424)" fill="#3bffca"/>
  </g>
</svg>
