<svg xmlns="http://www.w3.org/2000/svg" width="21.114" height="20.862" viewBox="0 0 21.114 20.862">
  <g id="Groupe_26" data-name="Groupe 26" transform="translate(0)">
    <g id="noun_Satellite_2295172" transform="translate(0 0)">
      <g id="Groupe_24" data-name="Groupe 24" transform="translate(0 0)">
        <g id="Groupe_21" data-name="Groupe 21">
          <path id="Tracé_3" data-name="Tracé 3" d="M43.128,34.119a1.8,1.8,0,0,0-.03-2.539l-.785-.767a1.8,1.8,0,0,0-2.539.03l-3.432,3.514a1.8,1.8,0,0,0,.03,2.539l.785.766a1.8,1.8,0,0,0,2.539-.03Z" transform="translate(-29.178 -23.807)" fill="#ff345b"/>
          <g id="Groupe_20" data-name="Groupe 20">
            <path id="Tracé_4" data-name="Tracé 4" d="M62.139,54.275a1.6,1.6,0,0,0,.352-2.165l-3.958-3.866a1.6,1.6,0,0,0-2.156.4l-1.934,1.98a1.6,1.6,0,0,0-.352,2.165l3.958,3.866a1.6,1.6,0,0,0,2.156-.4Z" transform="translate(-41.668 -36.069)" fill="#ff345b"/>
            <path id="Tracé_5" data-name="Tracé 5" d="M21.364,14.45a1.6,1.6,0,0,0,.353-2.165L17.758,8.419a1.6,1.6,0,0,0-2.156.4L13.668,10.8a1.6,1.6,0,0,0-.353,2.165l3.958,3.866a1.6,1.6,0,0,0,2.156-.4Z" transform="translate(-13.025 -8.146)" fill="#ff345b"/>
          </g>
        </g>
        <path id="Tracé_6" data-name="Tracé 6" d="M24.792,60.023c.888-1.229.451-3.289-1.071-4.775s-3.591-1.875-4.8-.958c-.144.109-.1.356.077.529l5.262,5.139C24.438,60.132,24.686,60.17,24.792,60.023Z" transform="translate(-17.253 -40.627)" fill="#ff345b"/>
        <path id="Tracé_7" data-name="Tracé 7" d="M64.147,28.63a.748.748,0,0,0-.012-1.058l-.8-.784a.748.748,0,0,0-1.058.012h0a.748.748,0,0,0,.013,1.058l.8.784a.748.748,0,0,0,1.058-.012Z" transform="translate(-47.923 -22.101)" fill="#ff345b"/>
        <g id="Groupe_23" data-name="Groupe 23" transform="translate(2.401 16.158)">
          <circle id="Ellipse_2" data-name="Ellipse 2" cx="0.927" cy="0.927" r="0.927" transform="translate(0 0.721)" fill="#ff345b"/>
          <g id="Groupe_22" data-name="Groupe 22" transform="translate(0.782 0)">
            <line id="Ligne_8" data-name="Ligne 8" y1="1.508" x2="1.472" transform="translate(0.145 0.14)"/>
            <rect id="Rectangle_17" data-name="Rectangle 17" width="0.405" height="2.108" transform="matrix(0.715, 0.699, -0.699, 0.715, 1.473, 0)" fill="#ff345b"/>
          </g>
        </g>
      </g>
    </g>
  </g>
</svg>
