<svg xmlns="http://www.w3.org/2000/svg" width="40" height="40" viewBox="0 0 40 40">
  <g id="settings" transform="translate(-0.363)">
    <g id="Ellipse_5" data-name="Ellipse 5" transform="translate(0.363)" fill="#141414" stroke="#1d1d1d" stroke-width="2">
      <circle cx="20" cy="20" r="20" stroke="none"/>
      <circle cx="20" cy="20" r="19" fill="none"/>
    </g>
    <g id="noun_Settings_1939978" transform="translate(8.924 8.907)">
      <path id="Tracé_21" data-name="Tracé 21" d="M24.106,11.466l-2.481-.421a8.807,8.807,0,0,0-.538-1.287L22.538,7.72a.777.777,0,0,0-.07-.983l-1.99-1.99a.749.749,0,0,0-.983-.07L17.458,6.128a7.85,7.85,0,0,0-1.287-.538l-.4-2.458a.754.754,0,0,0-.749-.632H12.215a.754.754,0,0,0-.749.632l-.421,2.481a8.807,8.807,0,0,0-1.287.538L7.72,4.7a.777.777,0,0,0-.983.07L4.747,6.76a.749.749,0,0,0-.07.983L6.128,9.78a7.85,7.85,0,0,0-.538,1.287l-2.458.4a.754.754,0,0,0-.632.749v2.809a.754.754,0,0,0,.632.749l2.481.421a8.808,8.808,0,0,0,.538,1.287L4.7,19.518a.777.777,0,0,0,.07.983l1.99,1.99a.749.749,0,0,0,.983.07L9.78,21.11a7.85,7.85,0,0,0,1.287.538l.421,2.481a.754.754,0,0,0,.749.632h2.809a.754.754,0,0,0,.749-.632l.4-2.5a8.807,8.807,0,0,0,1.287-.538l2.037,1.451a.777.777,0,0,0,.983-.07l1.99-1.99a.749.749,0,0,0,.07-.983L21.11,17.458a7.85,7.85,0,0,0,.538-1.287l2.481-.421A.754.754,0,0,0,24.762,15V12.215A.8.8,0,0,0,24.106,11.466ZM13.619,17.622a4,4,0,1,1,4-4A4,4,0,0,1,13.619,17.622Z" transform="translate(-2.5 -2.5)" fill="#fff"/>
    </g>
  </g>
</svg>
